<svg preserveAspectRatio="none" overflow="visible" style="display: block;" width="77.6" height="77.6" viewBox="0 0 77.6 77.6" fill="none" xmlns="http://www.w3.org/2000/svg">
<g id="Flags" filter="url(#filter0_d_0_200)">
<g clip-path="url(#clip0_0_200)">
<path id="Vector" d="M38.8 44.3C45.7036 44.3 51.3 38.7036 51.3 31.8C51.3 24.8964 45.7036 19.3 38.8 19.3C31.8964 19.3 26.3 24.8964 26.3 31.8C26.3 38.7036 31.8964 44.3 38.8 44.3Z" fill="#F0F0F0"/>
<path id="Vector_2" d="M38.8 19.3V31.8L29.9611 40.6389C32.2232 42.9009 35.3482 44.3 38.8 44.3C45.7035 44.3 51.3 38.7035 51.3 31.8C51.3 24.8965 38.8 19.3 38.8 19.3Z" fill="#D80027"/>
<path id="Vector_3" d="M38.8 19.3C35.3482 19.3 32.2232 20.6991 29.9611 22.9611C33.028 26.028 34.1167 27.1168 38.8 31.8H51.3C51.3 24.8965 45.7035 19.3 38.8 19.3Z" fill="#0052B4"/>
<g id="Group">
<path id="Vector_4" d="M34.8591 31.8L33.3326 31.0819L34.1455 29.6035L32.4878 29.9206L32.2777 28.246L31.1231 29.4776L29.9684 28.246L29.7583 29.9206L28.1006 29.6034L28.9136 31.0819L27.387 31.8L28.9136 32.5181L28.1006 33.9965L29.7585 33.6794L29.9684 35.3541L31.1231 34.1224L32.2777 35.3541L32.4878 33.6794L34.1454 33.9966L33.3325 32.5181L34.8591 31.8Z" fill="#FFDA44"/>
<path id="Vector_5" d="M29.6338 24.1913L30.1419 24.9014L30.9741 24.6378L30.4557 25.3403L30.9637 26.0504L30.1353 25.7745L29.6169 26.477L29.6233 25.604L28.795 25.328L29.6274 25.0644L29.6338 24.1913Z" fill="#FFDA44"/>
<path id="Vector_6" d="M29.6338 37.123L30.1419 37.8331L30.9741 37.5695L30.4557 38.2721L30.9637 38.9822L30.1353 38.7062L29.6169 39.4087L29.6233 38.5357L28.795 38.2597L29.6274 37.9961L29.6338 37.123Z" fill="#FFDA44"/>
<path id="Vector_7" d="M36.8795 30.6572L36.3715 31.3673L35.5392 31.1036L36.0577 31.8061L35.5496 32.5163L36.3781 32.2403L36.8965 32.9428L36.89 32.0698L37.7183 31.7938L36.886 31.5302L36.8795 30.6572Z" fill="#FFDA44"/>
</g>
</g>
</g>
<defs>
<filter id="filter0_d_0_200" x="0" y="0" width="77.6" height="77.6" filterUnits="userSpaceOnUse" color-interpolation-filters="sRGB">
<feFlood flood-opacity="0" result="BackgroundImageFix"/>
<feColorMatrix in="SourceAlpha" type="matrix" values="0 0 0 0 0 0 0 0 0 0 0 0 0 0 0 0 0 0 127 0" result="hardAlpha"/>
<feOffset dy="7"/>
<feGaussianBlur stdDeviation="13.15"/>
<feComposite in2="hardAlpha" operator="out"/>
<feColorMatrix type="matrix" values="0 0 0 0 1 0 0 0 0 1 0 0 0 0 1 0 0 0 0.25 0"/>
<feBlend mode="normal" in2="BackgroundImageFix" result="effect1_dropShadow_0_200"/>
<feBlend mode="normal" in="SourceGraphic" in2="effect1_dropShadow_0_200" result="shape"/>
</filter>
<clipPath id="clip0_0_200">
<rect width="25" height="25" fill="white" transform="translate(26.3 19.3)"/>
</clipPath>
</defs>
</svg>
